<svg width="31" height="35" viewBox="0 0 31 35" fill="none" xmlns="http://www.w3.org/2000/svg">
<path d="M15.5 2.1875C16.3724 2.1875 17.2362 2.35724 18.0421 2.68704C18.8481 3.01684 19.5804 3.50023 20.1972 4.10961C20.8141 4.719 21.3034 5.44244 21.6372 6.23864C21.971 7.03484 22.1429 7.8882 22.1429 8.75C22.1429 9.6118 21.971 10.4652 21.6372 11.2614C21.3034 12.0576 20.8141 12.781 20.1972 13.3904C19.5804 13.9998 18.8481 14.4832 18.0421 14.813C17.2362 15.1428 16.3724 15.3125 15.5 15.3125C14.6276 15.3125 13.7638 15.1428 12.9579 14.813C12.1519 14.4832 11.4196 13.9998 10.8028 13.3904C10.1859 12.781 9.69663 12.0576 9.3628 11.2614C9.02896 10.4652 8.85714 9.6118 8.85714 8.75C8.85714 7.8882 9.02896 7.03484 9.3628 6.23864C9.69663 5.44244 10.1859 4.719 10.8028 4.10961C11.4196 3.50023 12.1519 3.01684 12.9579 2.68704C13.7638 2.35724 14.6276 2.1875 15.5 2.1875ZM6.64286 8.75C6.64286 11.0706 7.57602 13.2962 9.23705 14.9372C10.8981 16.5781 13.1509 17.5 15.5 17.5C17.8491 17.5 20.1019 16.5781 21.7629 14.9372C23.424 13.2962 24.3571 11.0706 24.3571 8.75C24.3571 6.42936 23.424 4.20376 21.7629 2.56282C20.1019 0.921872 17.8491 0 15.5 0C13.1509 0 10.8981 0.921872 9.23705 2.56282C7.57602 4.20376 6.64286 6.42936 6.64286 8.75ZM13.2857 20.7812C12.6768 20.7812 12.1786 21.2734 12.1786 21.875C12.1786 22.4766 12.6768 22.9688 13.2857 22.9688H13.9638L12.4623 27.4121L10.2411 22.6611C10.0404 22.2305 9.5837 21.9775 9.11317 22.0596C3.93036 23.0029 0 27.501 0 32.9014C0 34.0635 0.954911 35 2.12433 35H28.8757C30.052 35 31 34.0566 31 32.9014C31 27.501 27.0696 23.0098 21.8799 22.0596C21.4094 21.9707 20.9527 22.2305 20.752 22.6611L18.5377 27.4121L17.0362 22.9688H17.7143C18.3232 22.9688 18.8214 22.4766 18.8214 21.875C18.8214 21.2734 18.3232 20.7812 17.7143 20.7812H15.5H13.2857ZM14.4967 31.7529L13.8254 30.3105L15.5 25.334L17.1815 30.3105L16.5103 31.7529C16.1158 32.6006 14.898 32.6006 14.4967 31.7529ZM12.483 32.6689C12.5038 32.7168 12.5315 32.7646 12.5522 32.8125H2.21429C2.2558 28.8408 4.94754 25.4912 8.62879 24.418L12.483 32.6689ZM28.7857 32.8125H18.4478C18.4685 32.7646 18.4962 32.7168 18.517 32.6689L22.3712 24.418C26.0525 25.4912 28.7442 28.834 28.7857 32.8125Z" fill="#1E3050"/>
</svg>
