<svg width="38" height="38" viewBox="0 0 38 38" fill="none" xmlns="http://www.w3.org/2000/svg">
<path d="M33.25 2.375C34.5637 2.375 35.625 3.43633 35.625 4.75V33.25C35.625 34.5637 34.5637 35.625 33.25 35.625H21.375C20.0613 35.625 19 34.5637 19 33.25V4.75C19 3.43633 20.0613 2.375 21.375 2.375H33.25ZM21.375 0C18.7551 0 16.625 2.13008 16.625 4.75V33.25C16.625 35.8699 18.7551 38 21.375 38H33.25C35.8699 38 38 35.8699 38 33.25V4.75C38 2.13008 35.8699 0 33.25 0H21.375ZM14.25 9.5H4.75C2.13008 9.5 0 11.6301 0 14.25V33.25C0 35.8699 2.13008 38 4.75 38H16.0609C15.4449 37.3172 14.9625 36.5082 14.6508 35.625H4.75C3.43633 35.625 2.375 34.5637 2.375 33.25V14.25C2.375 12.9363 3.43633 11.875 4.75 11.875H14.25V9.5ZM6.53125 23.75C5.54414 23.75 4.75 24.5441 4.75 25.5312V29.0938C4.75 30.0809 5.54414 30.875 6.53125 30.875H10.0938C11.0809 30.875 11.875 30.0809 11.875 29.0938V25.5312C11.875 24.5441 11.0809 23.75 10.0938 23.75H6.53125ZM7.125 28.5V26.125H9.5V28.5H7.125ZM23.75 29.0938C23.75 30.0809 24.5441 30.875 25.5312 30.875H29.0938C30.0809 30.875 30.875 30.0809 30.875 29.0938V25.5312C30.875 24.5441 30.0809 23.75 29.0938 23.75H25.5312C24.5441 23.75 23.75 24.5441 23.75 25.5312V29.0938ZM26.125 28.5V26.125H28.5V28.5H26.125ZM6.53125 14.25C5.54414 14.25 4.75 15.0441 4.75 16.0312V19.5938C4.75 20.5809 5.54414 21.375 6.53125 21.375H10.0938C11.0809 21.375 11.875 20.5809 11.875 19.5938V16.0312C11.875 15.0441 11.0809 14.25 10.0938 14.25H6.53125ZM7.125 19V16.625H9.5V19H7.125ZM23.75 6.53125V10.0938C23.75 11.0809 24.5441 11.875 25.5312 11.875H29.0938C30.0809 11.875 30.875 11.0809 30.875 10.0938V6.53125C30.875 5.54414 30.0809 4.75 29.0938 4.75H25.5312C24.5441 4.75 23.75 5.54414 23.75 6.53125ZM26.125 7.125H28.5V9.5H26.125V7.125ZM25.5312 21.375H29.0938C30.0809 21.375 30.875 20.5809 30.875 19.5938V16.0312C30.875 15.0441 30.0809 14.25 29.0938 14.25H25.5312C24.5441 14.25 23.75 15.0441 23.75 16.0312V19.5938C23.75 20.5809 24.5441 21.375 25.5312 21.375ZM26.125 16.625H28.5V19H26.125V16.625Z" fill="#1E3050"/>
</svg>
