<svg width="48" height="38" viewBox="0 0 48 38" fill="none" xmlns="http://www.w3.org/2000/svg">
<g clip-path="url(#clip0_186_717)">
<path d="M28.8 4.75C28.8 6.96172 27.27 8.82461 25.2 9.35156V35.625H39.6C40.26 35.625 40.8 36.1594 40.8 36.8125C40.8 37.4656 40.26 38 39.6 38H24H8.4C7.74 38 7.2 37.4656 7.2 36.8125C7.2 36.1594 7.74 35.625 8.4 35.625H22.8V9.35156C20.73 8.82461 19.2 6.96172 19.2 4.75H8.4C7.74 4.75 7.2 4.21562 7.2 3.5625C7.2 2.90937 7.74 2.375 8.4 2.375H19.845C20.67 0.957422 22.2225 0 24 0C25.7775 0 27.33 0.957422 28.155 2.375H38.4C39.06 2.375 39.6 2.90937 39.6 3.5625C39.6 4.21562 39.06 4.75 38.4 4.75H28.8ZM33.0525 26.8895C34.335 27.8395 36.2175 28.5 38.4 28.5C40.5825 28.5 42.465 27.8395 43.7475 26.8895C45.03 25.9395 45.6 24.8039 45.6 23.75H31.2V23.6313V23.6387V23.75C31.2 24.8039 31.77 25.9395 33.0525 26.8895ZM38.4 10.9324L31.9725 21.375H44.8275L38.4 10.9324ZM28.8 23.75V23.6313C28.8 22.5402 29.1 21.4715 29.6775 20.5437L36.5775 9.32187C36.9675 8.69102 37.6575 8.30508 38.4 8.30508C39.1425 8.30508 39.84 8.69102 40.2225 9.32187L47.1225 20.5437C47.6925 21.4715 48 22.5402 48 23.6313V23.75C48 27.6836 43.7025 30.875 38.4 30.875C33.0975 30.875 28.8 27.6836 28.8 23.75ZM2.4 23.75C2.4 24.8039 2.97 25.9395 4.2525 26.8895C5.535 27.8395 7.4175 28.5 9.6 28.5C11.7825 28.5 13.665 27.8395 14.9475 26.8895C16.23 25.9395 16.8 24.8039 16.8 23.75H2.4V23.6313V23.6387V23.75ZM3.1725 21.375H16.0275L9.6 10.9324L3.1725 21.375ZM9.6 30.875C4.2975 30.875 0 27.6836 0 23.75V23.6313C0 22.5402 0.3 21.4715 0.8775 20.5437L7.7775 9.32187C8.1675 8.69102 8.8575 8.30508 9.6 8.30508C10.3425 8.30508 11.04 8.69102 11.4225 9.32187L18.3225 20.5437C18.8925 21.4715 19.2 22.5402 19.2 23.6313V23.75C19.2 27.6836 14.9025 30.875 9.6 30.875ZM24 7.125C24.6365 7.125 25.247 6.87478 25.6971 6.42938C26.1471 5.98398 26.4 5.37989 26.4 4.75C26.4 4.12011 26.1471 3.51602 25.6971 3.07062C25.247 2.62522 24.6365 2.375 24 2.375C23.3635 2.375 22.753 2.62522 22.3029 3.07062C21.8529 3.51602 21.6 4.12011 21.6 4.75C21.6 5.37989 21.8529 5.98398 22.3029 6.42938C22.753 6.87478 23.3635 7.125 24 7.125Z" fill="#1E3050"/>
</g>
<defs>
<clipPath id="clip0_186_717">
<rect width="48" height="38" fill="white"/>
</clipPath>
</defs>
</svg>
